<?xml version="1.0" encoding="UTF-8" standalone="no"?>
<!-- Created with Inkscape (http://www.inkscape.org/) -->

<svg
   xmlns:dc="http://purl.org/dc/elements/1.1/"
   xmlns:cc="http://creativecommons.org/ns#"
   xmlns:rdf="http://www.w3.org/1999/02/22-rdf-syntax-ns#"
   xmlns:svg="http://www.w3.org/2000/svg"
   xmlns="http://www.w3.org/2000/svg"
   xmlns:sodipodi="http://sodipodi.sourceforge.net/DTD/sodipodi-0.dtd"
   xmlns:inkscape="http://www.inkscape.org/namespaces/inkscape"
   width="744.09448819"
   height="1052.3622047"
   id="svg2"
   version="1.1"
   inkscape:version="0.48.3.1 r9886"
   sodipodi:docname="New document 1">
  <defs
     id="defs4" />
  <sodipodi:namedview
     id="base"
     pagecolor="#ffffff"
     bordercolor="#666666"
     borderopacity="1.0"
     inkscape:pageopacity="0.0"
     inkscape:pageshadow="2"
     inkscape:zoom="5.6"
     inkscape:cx="400.38652"
     inkscape:cy="668.77947"
     inkscape:document-units="px"
     inkscape:current-layer="layer1"
     showgrid="false"
     inkscape:window-width="1366"
     inkscape:window-height="709"
     inkscape:window-x="0"
     inkscape:window-y="27"
     inkscape:window-maximized="1" />
  <metadata
     id="metadata7">
    <rdf:RDF>
      <cc:Work
         rdf:about="">
        <dc:format>image/svg+xml</dc:format>
        <dc:type
           rdf:resource="http://purl.org/dc/dcmitype/StillImage" />
        <dc:title></dc:title>
      </cc:Work>
    </rdf:RDF>
  </metadata>
  <g
     inkscape:label="Layer 1"
     inkscape:groupmode="layer"
     id="layer1">
    <path
       style="opacity:0.89387758;fill:#000000;fill-opacity:1;stroke:none"
       d="m 348.21429,410.21933 94,0 0,5.37881 c 0,0 -30.94006,-1.76587 -46.62119,-1.76587 -15.68114,0 -47.37881,1.76587 -47.37881,1.76587 z"
       id="rect2987"
       inkscape:connector-curvature="0"
       sodipodi:nodetypes="cccscc" />
    <path
       style="opacity:0.89387758;fill:#000000;fill-opacity:1;stroke:none"
       d="m 442.14957,347.20902 -94,0 0,-5.37881 c 0,0 30.94006,1.76587 46.62119,1.76587 15.68114,0 47.37881,-1.76587 47.37881,-1.76587 z"
       id="rect2987-5"
       inkscape:connector-curvature="0"
       sodipodi:nodetypes="cccscc" />
    <path
       style="opacity:0.89387758;fill:#000000;fill-opacity:1;stroke:none"
       d="m 436.72695,410.31187 0,-63.26431 5.37881,0 c 0,0 -1.76587,20.82341 -1.76587,31.37721 0,10.55379 1.76587,31.8871 1.76587,31.8871 z"
       id="rect2987-54"
       inkscape:connector-curvature="0"
       sodipodi:nodetypes="cccscc" />
    <path
       style="opacity:0.89387758;fill:#000000;fill-opacity:1;stroke:none"
       d="m 353.53885,347.04756 0,63.26431 -5.37881,0 c 0,0 1.76587,-20.82341 1.76587,-31.3772 0,-10.55379 -1.76587,-31.88711 -1.76587,-31.88711 z"
       id="rect2987-54-3"
       inkscape:connector-curvature="0"
       sodipodi:nodetypes="cccscc" />
  </g>
</svg>
