<?xml version="1.0" encoding="UTF-8" standalone="no"?>
<!-- Created with Inkscape (http://www.inkscape.org/) -->

<svg
   xmlns:dc="http://purl.org/dc/elements/1.1/"
   xmlns:cc="http://creativecommons.org/ns#"
   xmlns:rdf="http://www.w3.org/1999/02/22-rdf-syntax-ns#"
   xmlns:svg="http://www.w3.org/2000/svg"
   xmlns="http://www.w3.org/2000/svg"
   xmlns:sodipodi="http://sodipodi.sourceforge.net/DTD/sodipodi-0.dtd"
   xmlns:inkscape="http://www.inkscape.org/namespaces/inkscape"
   width="744.09448819"
   height="1052.3622047"
   id="svg2"
   version="1.1"
   inkscape:version="0.48.3.1 r9886"
   sodipodi:docname="New document 1">
  <defs
     id="defs4" />
  <sodipodi:namedview
     id="base"
     pagecolor="#ffffff"
     bordercolor="#666666"
     borderopacity="1.0"
     inkscape:pageopacity="0.0"
     inkscape:pageshadow="2"
     inkscape:zoom="1.4"
     inkscape:cx="388.14424"
     inkscape:cy="412.09027"
     inkscape:document-units="px"
     inkscape:current-layer="layer1"
     showgrid="false"
     inkscape:window-width="1366"
     inkscape:window-height="741"
     inkscape:window-x="0"
     inkscape:window-y="-5"
     inkscape:window-maximized="1" />
  <metadata
     id="metadata7">
    <rdf:RDF>
      <cc:Work
         rdf:about="">
        <dc:format>image/svg+xml</dc:format>
        <dc:type
           rdf:resource="http://purl.org/dc/dcmitype/StillImage" />
        <dc:title></dc:title>
      </cc:Work>
    </rdf:RDF>
  </metadata>
  <g
     inkscape:label="Layer 1"
     inkscape:groupmode="layer"
     id="layer1">
    <path
       style="fill:#999999;fill-opacity:1;stroke:none"
       d="m 318.99134,701.51415 0,10 0,119.99996 0,10 0,10 10,0 10,0 170,0 10,0 0,-10 0,-10 0,-119.99996 c 0,-5.54 -4.46,-10 -10,-10 l -170,0 -10,0 -10,0 z"
       id="rect2985"
       inkscape:connector-curvature="0" />
    <path
       style="fill:#999999;fill-opacity:1;stroke:none"
       d="m 257.0625,487.37055 c -5.54,0 -10,4.46 -10,10 l 0,130 0,10 0,10 10,0 150,0 10,0 0,-10 0,-10 0,-130 c 0,-5.54 -4.46,-10 -10,-10 l -150,0 z m 7.5,9.9062 135,0 0,101.25 -135,0 0,-101.25 z"
       id="rect3010"
       inkscape:connector-curvature="0" />
  </g>
</svg>
